<svg width="29" height="32" viewBox="0 0 29 32" fill="none" xmlns="http://www.w3.org/2000/svg">
<g clip-path="url(#clip0_53_510)">
<path d="M10.7694 29.3332C11.4303 29.3332 11.966 28.7362 11.966 27.9998C11.966 27.2635 11.4303 26.6665 10.7694 26.6665C10.1085 26.6665 9.57282 27.2635 9.57282 27.9998C9.57282 28.7362 10.1085 29.3332 10.7694 29.3332Z" stroke="#616467" stroke-width="2" stroke-linecap="round" stroke-linejoin="round"/>
<path d="M23.9315 29.3332C24.5924 29.3332 25.1281 28.7362 25.1281 27.9998C25.1281 27.2635 24.5924 26.6665 23.9315 26.6665C23.2707 26.6665 22.735 27.2635 22.735 27.9998C22.735 28.7362 23.2707 29.3332 23.9315 29.3332Z" stroke="#616467" stroke-width="2" stroke-linecap="round" stroke-linejoin="round"/>
<path d="M1.19649 1.3335H5.98281L9.18964 19.1868C9.29907 19.8007 9.59877 20.3521 10.0363 20.7446C10.4738 21.137 11.0212 21.3455 11.5828 21.3335H23.2136C23.7751 21.3455 24.3226 21.137 24.7601 20.7446C25.1976 20.3521 25.4973 19.8007 25.6067 19.1868L27.5213 8.00016H7.17939" stroke="#616467" stroke-width="2" stroke-linecap="round" stroke-linejoin="round"/>
</g>
<defs>
<clipPath id="clip0_53_510">
<rect width="28.7179" height="32" fill="white"/>
</clipPath>
</defs>
</svg>
